<?xml version="1.0" encoding="UTF-8"?> <!-- Generator: Adobe Illustrator 23.0.1, SVG Export Plug-In . SVG Version: 6.00 Build 0) --> <svg xmlns="http://www.w3.org/2000/svg" xmlns:xlink="http://www.w3.org/1999/xlink" id="Capa_1" x="0px" y="0px" viewBox="0 0 455.8 103.5" style="enable-background:new 0 0 455.8 103.5;" xml:space="preserve"> <style type="text/css"> .st0{fill:#B6EA42;} .st1{fill:#FCB73D;} .st2{fill:#FCF127;} .st3{fill:#F48E31;} .st4{fill:#E62530;} .st5{fill:#4EE592;} .st6{fill:#3298D8;} .st7{fill:#93D2F4;} .st8{fill:#102A89;} .st9{fill:#223FBC;} .st10{fill:#446BEA;} .st11{fill:#FFFFFF;} .st12{fill:#575756;} .st13{fill:#868686;} </style> <title>Logo</title> <g id="Capa_1-2"> <polygon class="st0" points="14.4,27.9 13.7,27.6 14,27.5 28.2,25 35,12.3 35.1,12 35.2,12.8 35.2,12.8 48,52.3 14.4,27.9 "></polygon> <polygon class="st1" points="47.9,52.9 14.2,77.3 14.2,77.3 13.7,77.9 13.8,77.6 15.8,63.3 5.8,53 5.5,52.7 6.3,52.9 "></polygon> <polygon class="st2" points="47.9,52.6 6.3,52.6 5.5,52.7 5.7,52.6 15.8,42.2 13.7,27.8 13.7,27.6 14.2,28.1 14.2,28.1 "></polygon> <polygon class="st3" points="48,53.1 35.2,92.7 35.1,93.5 35,93.3 28.2,80.4 13.9,77.9 13.7,77.9 14.4,77.6 14.4,77.6 "></polygon> <polygon class="st4" points="61.6,93.5 61.3,93.3 48.3,87 35.4,93.3 35.1,93.5 35.5,92.8 35.5,92.8 48.3,53.2 61.2,92.8 61.2,92.8 "></polygon> <polygon class="st5" points="61.6,12 61.2,12.7 61.2,12.7 48.3,52.2 35.5,12.7 35.5,12.7 35.1,12 35.3,12.1 48.3,18.5 61.4,12.1 "></polygon> <polygon class="st6" points="83,27.6 82.3,27.9 82.3,27.9 48.6,52.3 61.5,12.8 61.5,12.8 61.6,12 61.7,12.3 68.5,25 82.6,27.5 "></polygon> <polygon class="st7" points="48.5,52.8 48.6,53.1 48.3,52.9 48,53.1 48.2,52.8 47.9,52.6 48.2,52.6 48.3,52.2 48.5,52.6 48.8,52.6 "></polygon> <polygon class="st8" points="83,77.9 82.8,77.9 68.5,80.4 61.7,93.3 61.6,93.5 61.5,92.7 61.5,92.7 48.6,53.1 82.3,77.6 82.3,77.6 "></polygon> <polygon class="st9" points="90.9,53 80.9,63.3 82.9,77.6 83,77.9 82.4,77.3 82.4,77.3 48.8,52.9 90.4,52.9 91.2,52.7 "></polygon> <polygon class="st10" points="91.2,52.7 90.4,52.6 48.8,52.6 82.4,28.1 82.4,28.1 83,27.6 82.9,27.8 80.9,42.2 91,52.6 "></polygon> <polygon class="st11" points="48.5,52.8 48.6,53.1 48.3,52.9 48,53.1 48.2,52.8 47.9,52.6 48.2,52.6 48.3,52.2 48.5,52.6 48.8,52.6 "></polygon> <circle class="st5" cx="48.3" cy="8" r="5.5"></circle> <circle class="st4" cx="48.3" cy="97.9" r="5.5"></circle> <circle class="st3" cx="21.8" cy="87.9" r="5.5"></circle> <circle class="st1" cx="5.5" cy="67.8" r="5.5"></circle> <circle class="st0" cx="21.8" cy="17.5" r="5.5"></circle> <circle class="st2" cx="5.5" cy="38.1" r="5.5"></circle> <circle class="st8" cx="75.1" cy="89.2" r="5.5"></circle> <circle class="st9" cx="91.2" cy="66.2" r="5.5"></circle> <circle class="st6" cx="74.5" cy="17.5" r="5.5"></circle> <circle class="st10" cx="90.7" cy="38.1" r="5.5"></circle> <circle class="st11" cx="48.3" cy="52.7" r="19.8"></circle> <path class="st7" d="M48.5,52.6l-0.1-0.3l-0.1,0.3l-0.1,0.2L48,53.1l0.3-0.2l0.2-0.1l0.3-0.2H48.5z"></path> <path class="st7" d="M48.8,52.6h-0.9l0.3,0.2l0.2,0.1l0.3,0.2l-0.1-0.3L48.8,52.6z"></path> <path class="st7" d="M48.5,52.8l-0.1-0.2l-0.1-0.3l-0.1,0.3l-0.1,0.2L48,53.1l0.3-0.2l0.3,0.2L48.5,52.8z"></path> <path class="st7" d="M48.5,52.8l-0.1-0.2l-0.1-0.3l-0.1,0.3h-0.4l0.3,0.2l0.2,0.1l0.3,0.2L48.5,52.8z"></path> <path class="st7" d="M47.9,52.6l0.3,0.2L48,53.1l0.3-0.2l0.2-0.1l0.3-0.2H47.9z"></path> <polygon class="st4" points="48.3,74.9 48.3,40.3 51.6,45.4 53.6,44.1 52.6,52 56.5,48.3 57.3,50.3 61.5,49.7 60.2,54.6 62.1,55.5 54.9,60.5 55.7,63.5 48.8,62.3 "></polygon> <polygon class="st4" points="48.3,74.9 48.3,40.3 45.1,45.4 43.1,44.1 44,52 40.2,48.3 39.3,50.3 35.2,49.7 36.5,54.6 34.5,55.5 41.8,60.5 41,63.5 47.8,62.3 "></polygon> <g> <path class="st12" d="M115.5,33.6h24v5h-18.3v12h16.7v5h-16.7v12.7h18.6v5h-24.3V33.6z"></path> <path class="st12" d="M154.7,48l-3.4-5.5h-0.2l0.7,5.5v25.2h-5.3V33h3.2l20.2,25.7l3.2,5.3h0.3l-0.7-5.3V33.6h5.3v40.2h-3.2 L154.7,48z"></path> <path class="st12" d="M185.8,33.6c0.8-0.1,1.6-0.2,2.6-0.2s2-0.1,3.1-0.1l3.2-0.1h2.9c3.1-0.1,6.1,0.4,9,1.5 c2.4,0.9,4.6,2.3,6.4,4.1c1.7,1.8,3,4,3.8,6.3c0.8,2.6,1.3,5.3,1.2,8c0,2.6-0.4,5.2-1.2,7.7c-0.8,2.4-2,4.7-3.7,6.6 c-1.8,2-4.1,3.6-6.6,4.6c-3.1,1.2-6.4,1.8-9.7,1.8c-0.7,0-1.5,0-2.6-0.1l-3.3-0.1c-1.1,0-2.2-0.1-3.1-0.1s-1.6-0.1-2.1-0.2 L185.8,33.6z M197.8,38.1h-1.7c-0.6,0-1.2,0-1.8,0.1s-1.1,0.1-1.6,0.1l-1.1,0.1v30.3c0.4,0,0.7,0.1,1.1,0.1l1.7,0.1h1.7h1.1 c2.4,0.1,4.9-0.4,7.1-1.3c1.8-0.8,3.3-2,4.5-3.4c1.2-1.5,2-3.2,2.4-5c0.5-1.9,0.7-3.9,0.7-5.8c0-1.8-0.2-3.5-0.7-5.2 c-0.4-1.8-1.2-3.4-2.3-4.9c-1.2-1.5-2.7-2.7-4.4-3.6C202.5,38.5,200.1,38,197.8,38.1L197.8,38.1z"></path> <path class="st12" d="M224.1,33.6h24v5h-18.3v12h16.7v5h-16.7v12.7h18.6v5h-24.2V33.6z"></path> <path class="st12" d="M275.7,62.8h-15.6L256,73.3h-5.7L266.7,33h2.9L286,73.3h-6L275.7,62.8z M261.9,58.1h12.2l-4.5-11.3l-1.6-6.1 h-0.1l-1.5,6.2L261.9,58.1z"></path> <path class="st12" d="M298.4,60l1.5,6.2h0.1l1.5-6.3l10.2-26.3h5.7L301,73.8h-2.8l-16.7-40.2h6.2L298.4,60z"></path> <path class="st12" d="M316.8,53.4c0-2.9,0.4-5.9,1.2-8.7c0.7-2.4,1.9-4.6,3.5-6.5c1.5-1.7,3.5-3.1,5.6-4c2.4-1,4.9-1.4,7.5-1.4 c2.7-0.1,5.4,0.5,7.8,1.5c2.2,0.9,4.1,2.4,5.6,4.2c1.5,1.9,2.7,4.1,3.3,6.5c0.8,2.7,1.1,5.6,1.1,8.4c0,2.9-0.4,5.9-1.2,8.7 c-0.7,2.4-1.9,4.6-3.5,6.5c-1.5,1.7-3.5,3.1-5.6,4c-5,1.9-10.4,1.9-15.4-0.1c-2.2-0.9-4.1-2.4-5.6-4.2c-1.5-1.9-2.7-4.1-3.3-6.5 C317.1,59.1,316.7,56.3,316.8,53.4z M322.8,53.4c0,2,0.2,4,0.7,6c0.4,1.8,1.2,3.4,2.1,5c0.9,1.4,2.2,2.6,3.7,3.4 c4.7,2.3,10.4,1.3,14-2.5c2.1-2.5,3.2-6.5,3.2-11.8c0-2-0.2-4-0.7-6c-0.4-1.8-1.2-3.4-2.1-5c-0.9-1.4-2.2-2.6-3.7-3.4 c-4.7-2.4-10.4-1.3-14,2.6C323.9,44.2,322.8,48.2,322.8,53.4L322.8,53.4z"></path> <path class="st12" d="M383.4,33.6h5.3v25.9c0.1,2.2-0.3,4.3-1,6.3c-1.3,3.4-4.1,6-7.5,7.1c-1.9,0.6-3.9,0.9-5.9,0.8 c-5.1,0-9-1.1-11.7-3.3c-2.7-2.2-4-5.5-4-9.8v-27h5.7v24.8c0,3.8,0.8,6.5,2.5,8s4.2,2.3,7.5,2.3s5.5-0.8,7-2.5s2.2-4.3,2.2-8 L383.4,33.6z"></path> <path class="st12" d="M396.6,34c0.8-0.2,1.7-0.3,2.6-0.4s1.9-0.2,2.9-0.3s2-0.1,3-0.2s1.9-0.1,2.8-0.1c1.8,0,3.7,0.2,5.5,0.6 c1.7,0.3,3.2,1,4.7,1.9c2.9,1.8,4.6,5.1,4.5,8.6c0,1.5-0.2,2.9-0.7,4.3c-0.5,1.2-1.1,2.4-2,3.4c-0.9,1-1.9,1.8-3.1,2.5 c-1.2,0.7-2.5,1.2-3.9,1.5l3,2l10.7,15.5h-6.5L408,56.5l-5.7-0.8v17.5h-5.7L396.6,34z M408,38.1h-1.6c-0.5,0-1.1,0-1.6,0.1 l-1.5,0.1c-0.4,0-0.7,0.1-1.1,0.2v13.7h4.6c1.3,0,2.5-0.1,3.8-0.4c1.1-0.2,2.1-0.7,3-1.3c0.8-0.6,1.5-1.4,2-2.3 c0.5-1.1,0.8-2.3,0.7-3.5c0.1-1.9-0.7-3.6-2.1-4.8C412.4,38.6,410.2,37.9,408,38.1z"></path> </g> <g> <path class="st13" d="M151.6,83.4h-1.9v-1.6h6.1v1.6H154v13.4h1.9v1.6h-6.1v-1.6h1.9V83.4z"></path> <path class="st13" d="M166.7,98.4v-6.8c0-0.6,0-1.2-0.1-1.8c0-0.4-0.2-0.9-0.4-1.3c-0.2-0.3-0.5-0.6-0.8-0.8 c-0.4-0.2-0.9-0.3-1.3-0.2c-0.8,0-1.5,0.2-2.1,0.7c-0.6,0.5-1,1.1-1.2,1.8v8.4h-2.2V86h1.5l0.4,1.7h0.2c0.5-0.6,1.1-1,1.7-1.4 c0.8-0.4,1.6-0.6,2.5-0.6c0.7,0,1.5,0.2,2.1,0.5c0.6,0.4,1.1,1.1,1.3,1.8c0.5-0.7,1.1-1.3,1.9-1.7c0.7-0.4,1.6-0.7,2.4-0.6 c0.7,0,1.3,0.1,1.9,0.3c0.5,0.2,1,0.5,1.3,0.9c0.4,0.5,0.6,1.1,0.7,1.7c0.2,0.9,0.3,1.8,0.2,2.8v7.2h-2.2v-7.2 c0-0.5,0-1.1-0.1-1.6c-0.1-0.4-0.2-0.8-0.4-1.2c-0.2-0.3-0.5-0.5-0.8-0.7c-0.4-0.2-0.9-0.2-1.3-0.2c-0.8,0-1.5,0.2-2.1,0.7 c-0.6,0.6-1,1.3-1.1,2.1v8L166.7,98.4z"></path> <path class="st13" d="M188.2,98.4v-6.8c0-0.6,0-1.2-0.1-1.8c0-0.4-0.2-0.9-0.4-1.3c-0.2-0.3-0.5-0.6-0.8-0.8 c-0.4-0.2-0.9-0.3-1.3-0.2c-0.8,0-1.5,0.2-2.1,0.7c-0.6,0.5-1,1.1-1.2,1.8v8.4h-2.2V86h1.5l0.4,1.7h0.3c0.5-0.6,1.1-1,1.7-1.4 c0.8-0.4,1.6-0.6,2.5-0.6c0.7,0,1.5,0.2,2.1,0.5c0.6,0.4,1.1,1.1,1.3,1.8c0.5-0.7,1.1-1.3,1.8-1.7c0.7-0.4,1.6-0.7,2.4-0.6 c0.7,0,1.3,0.1,1.9,0.3c0.5,0.2,1,0.5,1.3,0.9c0.4,0.5,0.6,1.1,0.7,1.7c0.2,0.9,0.3,1.8,0.2,2.8v7.2h-2.2v-7.1 c0-0.5,0-1.1-0.1-1.6c-0.1-0.4-0.2-0.8-0.4-1.2c-0.2-0.3-0.5-0.5-0.8-0.7c-0.4-0.2-0.9-0.2-1.3-0.2c-0.8,0-1.5,0.2-2.1,0.7 c-0.6,0.6-1,1.3-1.1,2.1v8H188.2z"></path> <path class="st13" d="M201.8,83.1c0-0.4,0.2-0.7,0.4-1c0.3-0.3,0.7-0.5,1.1-0.4c0.4,0,0.8,0.1,1.1,0.4c0.3,0.3,0.4,0.6,0.4,1 c0,0.4-0.2,0.8-0.4,1c-0.3,0.3-0.7,0.4-1.1,0.4c-0.4,0-0.8-0.1-1.1-0.4C201.9,83.8,201.8,83.4,201.8,83.1z M202.2,86.1h2.2v12.4 h-2.2V86.1z"></path> <path class="st13" d="M218.8,98.5c0.1,1.4-0.4,2.7-1.4,3.6c-1.2,0.9-2.7,1.3-4.2,1.2c-0.9,0-1.7,0-2.6-0.2 c-0.6-0.1-1.2-0.3-1.7-0.5l0.5-2c0.2,0.1,0.4,0.2,0.7,0.3s0.6,0.2,0.9,0.3c0.3,0.1,0.6,0.1,0.9,0.2c0.3,0,0.6,0.1,0.9,0.1 c0.6,0,1.3-0.1,1.9-0.2c0.4-0.1,0.9-0.3,1.2-0.6c0.3-0.3,0.5-0.7,0.6-1.1c0.1-0.5,0.2-1,0.2-1.6v-0.9h-0.3c-0.3,0.5-0.8,0.8-1.3,1 c-0.7,0.3-1.5,0.4-2.3,0.4c-1.5,0.1-2.9-0.4-4-1.4c-0.9-1-1.3-2.5-1.3-4.7c-0.1-1.8,0.5-3.6,1.6-4.9c1.3-1.2,3.1-1.9,4.9-1.7 c0.9,0,1.8,0.1,2.7,0.2c0.7,0.1,1.3,0.3,2,0.5L218.8,98.5z M213.2,96.6c0.8,0,1.6-0.2,2.2-0.7c0.6-0.5,0.9-1.2,1.1-1.9v-6.1 c-0.4-0.1-0.8-0.2-1.2-0.3c-0.5-0.1-1.1-0.1-1.6-0.1c-1.1-0.1-2.1,0.4-2.9,1.2c-0.8,1-1.1,2.3-1,3.6c-0.1,1.1,0.2,2.2,0.8,3.2 C211.3,96.3,212.2,96.7,213.2,96.6L213.2,96.6z"></path> <path class="st13" d="M228.5,88.1c-0.3-0.1-0.5-0.1-0.8-0.2c-0.2,0-0.5-0.1-0.7-0.1c-0.7,0-1.4,0.2-1.9,0.6 c-0.5,0.4-0.8,1-0.9,1.6v8.4H222V86h1.5l0.4,1.7h0.2c0.3-0.6,0.8-1,1.3-1.4c0.5-0.4,1.2-0.5,1.8-0.5c0.3,0,0.5,0,0.8,0.1 c0.3,0,0.6,0.1,0.9,0.2L228.5,88.1z"></path> <path class="st13" d="M229.9,86.8c1.7-0.7,3.5-1.1,5.3-1c0.8,0,1.6,0.1,2.3,0.4c0.5,0.2,1,0.5,1.3,0.9c0.3,0.4,0.5,0.8,0.6,1.3 c0.1,0.5,0.1,0.9,0.1,1.4c0,0.9,0,1.7-0.1,2.6c-0.1,0.9-0.1,1.8-0.1,2.8c0,0.6,0,1.2,0.1,1.7c0,0.5,0.1,1,0.3,1.6h-1.6l-0.6-1.9 h-0.2c-0.2,0.3-0.4,0.5-0.6,0.7c-0.3,0.3-0.6,0.5-0.9,0.7c-0.8,0.5-1.8,0.7-2.8,0.7c-0.5,0-1.1-0.1-1.6-0.2 c-0.5-0.2-0.9-0.4-1.3-0.7c-0.4-0.3-0.6-0.7-0.8-1.1c-0.2-0.5-0.3-1-0.3-1.5c0-0.6,0.1-1.3,0.5-1.8c0.3-0.5,0.7-0.9,1.2-1.3 c0.5-0.3,1.1-0.6,1.7-0.7c0.6-0.2,1.2-0.2,1.9-0.2h1.2l0.9,0.1l0.6,0.1l0.4,0.1c0-0.2,0.1-0.4,0.1-0.6c0-0.2,0-0.4,0-0.7 c0-0.4,0-0.8-0.1-1.1c-0.1-0.3-0.2-0.5-0.5-0.7c-0.3-0.2-0.5-0.3-0.9-0.4c-0.4-0.1-0.9-0.1-1.3-0.1c-0.3,0-0.7,0-1,0.1 c-0.4,0-0.7,0.1-1.1,0.2s-0.7,0.2-1.1,0.3c-0.3,0.1-0.7,0.3-1,0.4L229.9,86.8z M237.4,92.8c-0.1,0-0.3,0-0.4-0.1 c-0.2,0-0.4-0.1-0.5-0.1h-0.8h-1.1c-0.8,0-1.6,0.1-2.3,0.5c-0.6,0.4-0.9,1.1-0.9,1.8c0,0.6,0.2,1.1,0.7,1.4 c0.5,0.3,1.1,0.5,1.7,0.5c0.9,0,1.7-0.2,2.4-0.7c0.3-0.2,0.5-0.4,0.7-0.7c0.2-0.2,0.3-0.5,0.4-0.7V92.8z"></path> <path class="st13" d="M241.4,86h2.1v-2.5l2.2-0.6V86h3.7v1.8h-3.7v6.3c-0.1,0.7,0.1,1.4,0.4,2.1c0.3,0.4,0.8,0.7,1.3,0.6 c0.4,0,0.7,0,1.1-0.1c0.3-0.1,0.7-0.2,1.1-0.3L250,98c-0.5,0.2-1.1,0.4-1.6,0.6c-0.6,0.2-1.2,0.2-1.9,0.2 c-0.9,0.1-1.8-0.2-2.4-0.9c-0.5-0.9-0.8-1.9-0.7-2.9v-7.1h-2.1L241.4,86z"></path> <path class="st13" d="M251.7,83.1c0-0.4,0.2-0.7,0.4-1c0.3-0.3,0.7-0.5,1.1-0.4c0.4,0,0.8,0.1,1.1,0.4c0.3,0.3,0.4,0.6,0.5,1 c0,0.4-0.2,0.8-0.5,1c-0.3,0.3-0.7,0.4-1.1,0.4c-0.4,0-0.8-0.1-1.1-0.4C251.9,83.8,251.7,83.4,251.7,83.1z M252.2,86.1h2.1v12.4 h-2.2L252.2,86.1z"></path> <path class="st13" d="M257.4,92.2c0-0.9,0.1-1.9,0.4-2.8c0.2-0.8,0.7-1.5,1.2-2.1c0.5-0.6,1.2-1,1.9-1.3c0.8-0.3,1.7-0.5,2.6-0.4 c0.9,0,1.8,0.1,2.6,0.5c0.7,0.3,1.4,0.8,1.9,1.4c0.5,0.6,0.9,1.3,1.1,2.1c0.2,0.9,0.4,1.7,0.4,2.6c0,0.9-0.1,1.8-0.4,2.7 c-0.3,0.8-0.7,1.4-1.2,2c-0.5,0.6-1.2,1-1.9,1.3c-1.7,0.6-3.6,0.6-5.2,0c-0.7-0.3-1.4-0.8-1.9-1.4c-0.5-0.6-0.9-1.3-1.1-2.1 C257.6,94,257.4,93.1,257.4,92.2z M259.8,92.2c0,0.6,0.1,1.2,0.2,1.7c0.1,0.5,0.3,1,0.6,1.5c0.3,0.4,0.7,0.8,1.1,1.1 c0.5,0.3,1.1,0.4,1.7,0.4c2.4,0,3.6-1.6,3.6-4.7c0-0.6-0.1-1.2-0.2-1.8c-0.1-0.5-0.4-1-0.7-1.5c-0.3-0.4-0.7-0.8-1.1-1 c-0.5-0.3-1.1-0.4-1.7-0.4c-1.1-0.1-2.1,0.4-2.8,1.2C260.1,89.8,259.7,91,259.8,92.2z"></path> <path class="st13" d="M280.9,98.4v-6.9c0.1-1-0.2-2.1-0.6-3c-0.5-0.7-1.4-1.1-2.3-1c-0.9,0-1.7,0.2-2.4,0.7 c-0.6,0.5-1.1,1.2-1.3,1.9v8.2h-2.2V86h1.5l0.4,1.7h0.2c1.1-1.3,2.7-2.1,4.4-2c0.6,0,1.3,0.1,1.9,0.2c0.5,0.2,1,0.5,1.4,0.9 c0.4,0.5,0.7,1.1,0.8,1.7c0.2,0.9,0.3,1.8,0.3,2.7v7.3L280.9,98.4z"></path> <path class="st13" d="M300.4,94.1c0-0.6-0.2-1.1-0.6-1.5c-0.5-0.4-1-0.8-1.6-1c-0.6-0.3-1.3-0.5-2.1-0.8c-0.7-0.2-1.4-0.5-2.1-0.9 c-0.6-0.4-1.2-0.9-1.6-1.5c-0.4-0.7-0.7-1.5-0.6-2.3c0-1.3,0.5-2.5,1.5-3.2c1.2-0.9,2.7-1.3,4.2-1.2c1,0,1.9,0.1,2.9,0.2 c0.7,0.1,1.4,0.3,2.1,0.6l-0.7,2c-0.6-0.2-1.2-0.4-1.8-0.5c-0.9-0.2-1.7-0.2-2.6-0.2c-0.9-0.1-1.7,0.2-2.4,0.7 c-0.5,0.4-0.8,0.9-0.8,1.6c0,0.6,0.2,1.1,0.6,1.5c0.5,0.4,1,0.8,1.6,1c0.6,0.3,1.3,0.6,2.1,0.8c0.7,0.3,1.4,0.6,2.1,1 c0.6,0.4,1.2,0.9,1.6,1.5c0.5,0.6,0.7,1.4,0.6,2.2c0,0.7-0.1,1.4-0.4,2c-0.3,0.6-0.7,1.1-1.2,1.5c-0.6,0.4-1.2,0.8-1.9,1 c-0.8,0.2-1.7,0.4-2.6,0.3c-1.1,0-2.2-0.1-3.3-0.3c-0.7-0.1-1.4-0.3-2-0.6l0.8-2.1c0.6,0.3,1.2,0.5,1.8,0.6 c0.9,0.2,1.8,0.3,2.6,0.3c0.5,0,1,0,1.5-0.2c0.4-0.1,0.9-0.3,1.2-0.5c0.3-0.2,0.6-0.5,0.8-0.8C300.3,94.8,300.4,94.5,300.4,94.1z"></path> <path class="st13" d="M304.4,92.2c0-0.9,0.1-1.9,0.4-2.8c0.2-0.8,0.7-1.5,1.2-2.1c0.5-0.6,1.2-1,1.9-1.3c0.8-0.3,1.7-0.5,2.6-0.4 c0.9,0,1.8,0.1,2.6,0.5c0.7,0.3,1.4,0.8,1.9,1.4c0.5,0.6,0.9,1.3,1.1,2.1c0.2,0.9,0.4,1.7,0.4,2.6c0,0.9-0.1,1.8-0.4,2.7 c-0.3,0.8-0.7,1.4-1.2,2c-0.5,0.6-1.2,1-1.9,1.3c-1.7,0.6-3.6,0.6-5.2,0c-0.7-0.3-1.4-0.8-1.9-1.4c-0.5-0.6-0.9-1.3-1.1-2.1 C304.5,94,304.4,93.1,304.4,92.2z M306.8,92.2c0,0.6,0.1,1.2,0.2,1.7c0.1,0.5,0.3,1,0.6,1.5c0.6,1,1.7,1.5,2.9,1.5 c2.4,0,3.6-1.6,3.6-4.7c0-0.6-0.1-1.2-0.2-1.8c-0.1-0.5-0.3-1-0.6-1.5c-0.3-0.4-0.7-0.8-1.1-1c-0.5-0.3-1.1-0.4-1.7-0.4 c-1.1-0.1-2.1,0.4-2.8,1.2C307,89.8,306.7,91,306.8,92.2L306.8,92.2z"></path> <path class="st13" d="M321.5,95.2c0,0.5,0.1,1,0.4,1.4c0.3,0.3,0.6,0.4,1,0.4c0.2,0,0.5,0,0.7,0c0.3,0,0.6-0.1,0.9-0.2l0.3,1.6 c-0.2,0.1-0.4,0.1-0.6,0.2l-0.7,0.2c-0.2,0-0.5,0.1-0.7,0.1c-0.2,0-0.4,0-0.6,0c-0.7,0-1.4-0.2-2-0.7c-0.6-0.6-0.9-1.3-0.8-2.1 V81.9h2.2L321.5,95.2z"></path> <path class="st13" d="M328.2,86v6.8c0,0.6,0,1.2,0.1,1.8c0.1,0.4,0.2,0.9,0.4,1.3c0.2,0.3,0.5,0.6,0.8,0.8 c0.4,0.2,0.9,0.3,1.4,0.3c0.8,0,1.7-0.3,2.3-0.8c0.6-0.6,1.1-1.2,1.4-2V86h2.2v8.9c0,0.6,0,1.2,0.1,1.8c0,0.6,0.1,1.1,0.2,1.7 h-1.5l-0.6-2.1h-0.2c-0.4,0.7-1,1.3-1.7,1.7c-0.8,0.5-1.8,0.7-2.7,0.7c-0.6,0-1.3-0.1-1.9-0.3c-0.5-0.2-1-0.5-1.4-0.9 c-0.4-0.5-0.7-1-0.8-1.6c-0.2-0.9-0.3-1.7-0.3-2.6V86H328.2z"></path> <path class="st13" d="M338.8,86h2.1v-2.5l2.2-0.6V86h3.7v1.8h-3.7v6.3c-0.1,0.7,0.1,1.5,0.4,2.1c0.3,0.4,0.8,0.7,1.3,0.6 c0.4,0,0.7,0,1.1-0.1c0.3-0.1,0.7-0.2,1.1-0.3l0.5,1.5c-0.5,0.2-1.1,0.4-1.6,0.6c-0.6,0.2-1.2,0.2-1.9,0.2 c-0.9,0.1-1.8-0.2-2.4-0.9c-0.5-0.9-0.8-1.9-0.7-2.9v-7.1h-2.1V86z"></path> <path class="st13" d="M349.1,83.1c0-0.4,0.2-0.7,0.4-1c0.3-0.3,0.7-0.5,1.1-0.4c0.4,0,0.8,0.1,1.1,0.4c0.3,0.3,0.4,0.6,0.5,1 c0,0.4-0.2,0.8-0.5,1c-0.3,0.3-0.7,0.4-1.1,0.4c-0.4,0-0.8-0.1-1.1-0.4C349.3,83.8,349.1,83.4,349.1,83.1z M349.6,86.1h2.2v12.4 h-2.2V86.1z"></path> <path class="st13" d="M354.9,92.2c0-0.9,0.1-1.9,0.4-2.8c0.2-0.8,0.6-1.5,1.2-2.1c0.5-0.6,1.2-1,1.9-1.3c0.8-0.3,1.7-0.5,2.6-0.4 c0.9,0,1.8,0.1,2.6,0.5c0.7,0.3,1.4,0.8,1.9,1.4c0.5,0.6,0.9,1.3,1.1,2.1c0.2,0.9,0.4,1.7,0.4,2.6c0,0.9-0.1,1.8-0.4,2.7 c-0.3,0.8-0.7,1.4-1.2,2c-0.5,0.6-1.2,1-1.9,1.3c-1.7,0.6-3.6,0.6-5.2,0c-0.7-0.3-1.4-0.8-1.9-1.4c-0.5-0.6-0.9-1.3-1.1-2.1 C355,94,354.9,93.1,354.9,92.2z M357.2,92.2c0,0.6,0.1,1.1,0.2,1.7c0.1,0.5,0.3,1,0.6,1.5c0.3,0.4,0.7,0.8,1.1,1.1 c0.5,0.3,1.1,0.4,1.7,0.4c2.4,0,3.6-1.6,3.6-4.7c0-0.6-0.1-1.2-0.2-1.8c-0.1-0.5-0.3-1-0.6-1.5c-0.3-0.4-0.7-0.8-1.1-1 c-1.5-0.8-3.3-0.4-4.5,0.8C357.5,89.8,357.2,91,357.2,92.2L357.2,92.2z"></path> <path class="st13" d="M378.3,98.4v-6.9c0.1-1-0.1-2.1-0.6-3c-0.5-0.7-1.4-1.1-2.3-1c-0.9,0-1.7,0.2-2.4,0.7 c-0.6,0.5-1.1,1.2-1.3,1.9v8.2h-2.2V86h1.5l0.4,1.7h0.2c0.5-0.6,1.1-1.1,1.8-1.4c0.8-0.4,1.7-0.6,2.6-0.6c0.6,0,1.3,0.1,1.9,0.2 c0.5,0.2,1,0.5,1.4,0.9c0.4,0.5,0.7,1.1,0.8,1.7c0.2,0.9,0.3,1.8,0.3,2.7v7.3L378.3,98.4z"></path> <path class="st13" d="M390,95c0-0.3-0.1-0.6-0.2-0.8c-0.2-0.2-0.4-0.4-0.6-0.6c-0.3-0.2-0.6-0.3-0.9-0.4l-1-0.3l-1.4-0.4 c-0.4-0.1-0.9-0.3-1.2-0.6c-0.8-0.6-1.3-1.6-1.3-2.6c-0.1-1,0.3-2,1.1-2.7c0.9-0.7,2-1,3.1-0.9c0.8,0,1.7,0.1,2.5,0.3 c0.6,0.2,1.2,0.4,1.8,0.6l-0.6,1.8c-0.5-0.2-1-0.4-1.5-0.6c-0.6-0.2-1.3-0.3-2-0.3c-0.6,0-1.2,0.1-1.7,0.4 c-0.4,0.3-0.6,0.8-0.6,1.4c0,0.2,0.1,0.5,0.2,0.7c0.2,0.2,0.3,0.4,0.6,0.5c0.3,0.1,0.5,0.3,0.8,0.4c0.3,0.1,0.6,0.2,1,0.3 s1,0.3,1.4,0.4c0.5,0.2,0.9,0.4,1.3,0.7c0.9,0.6,1.4,1.6,1.3,2.7c0,1.1-0.4,2.1-1.2,2.8c-1,0.8-2.3,1.2-3.6,1.1 c-0.9,0-1.8-0.1-2.6-0.3c-0.7-0.2-1.3-0.4-1.9-0.7l0.6-1.9c0.5,0.3,1.1,0.5,1.7,0.7c0.7,0.2,1.4,0.3,2.1,0.3 c0.7,0,1.3-0.1,1.9-0.4C389.8,96.2,390.1,95.6,390,95z"></path> </g> <path class="st13" d="M427.1,33.7c1.5,0.4,3,1,4.3,1.8c1,0.9,1.9,2.4,2.5,3c1.2,1.3,2.7,2.2,4.4,2.6c1.2,0.2,2.5,0.3,3.7,0.2 c0.9,0.1,1.4-0.1,1.7,0.2s0.2,0.3,1.3,0.6s2,0.2,2.3,0.5s0.9,0.4,0.7,0s-1.1-1-1.5-1.4s-1.2-0.8-1.6-1.2s-0.5-0.9-0.2-1 c0.6-0.2,1.1-0.6,1.5-1.1c0.5-1,0.6-1.6,0.8-1.9s0.9,0.2,1.5,0.5c0.3,0.1,2,0.8,2.5,0.5s1.4,0.4,2,0.2c1.7-0.5,1.1-1,1.7-1 s1.8-0.6,0.3-1.5s-5-2.4-5.6-2.8s-2.9-1.5-3.1-1.5c-0.6,0.1-1.3,0.3-1.8,0.7c-0.4,0.2-0.4,0.6-0.3,0.1c0.1-0.5,0.2-0.9,0.2-1.4 c0-0.3,1.1-1.1,0.7-2c-0.1-0.3,0.6-0.5,0.3-2.2c-0.1-0.3,1.6-1.3,0.7-1.5s-1.3-0.1-2.9,0.2s-5.3,1.4-5.6,1.9 c-0.3,1.2-0.4,2.4-0.2,3.6c0.1,0.6,0.5,2.4-0.3,3.2c-0.6,0.7-1.6,1.1-2.5,0.9c-1.5-0.2-3-0.4-4.5-0.8c-1-0.4-1.5-0.8-2.8-1.4 s-2.4,0-3,0s-2.2-0.5-1.8,0C422.8,32.4,425.7,33.4,427.1,33.7z"></path> <path class="st13" d="M412.4,26.7c-0.3-0.4-1-0.8-1.3-1.1c-0.3-0.6-0.6-1.2-0.8-1.9c-0.1-0.2-0.1-0.4-0.1-0.6c0-0.3,0-0.6-0.1-0.9 c0-0.2,0-0.5,0.1-0.7c0.4-0.3,0.8-0.7,1.1-1.1c0.1-0.4,0.1-0.8,0.1-1.2c-0.1-0.3,0.4,0,0.6-1.1c0.1-0.4,0.1-0.8,0-1.1 c0.2-0.7,0.1-1.5-0.2-2.2c-0.2-0.3,1-1.1,0.8-2.6c0-0.1,1-2,0.2-3.1c-0.3-0.4,0.1-2.4-0.2-2.6c-0.6-0.2-1.4,1.2-3.2,3.1 c-1,1-3.3,3-3.6,3.4c-0.4,1-0.5,2.1-0.5,3.1c0,0.5,0.2,2.1-0.5,2.8c-0.6,0.6-1.4,0.8-2.2,0.6c-1.3-0.2-2.5-0.5-3.7-1.1 c-0.8-0.4-0.7-1.2-1.8-1.9s-2.3-0.1-2.8-0.1s-1.9-0.6-1.6-0.2s2.7,1.5,4,1.9c0.9,0.6,1.7,1.4,2.3,2.2c0.8,0.9,2.1,2.3,2.6,2.9 c0.9,1.2,2.2,2.1,3.6,2.6c1,0.3,2.1,0.4,3.2,0.5c0.8,0.2,1.2,0,1.4,0.3s0.2,0.3,1.1,0.6s1.5,0,1.7,0.3s1.3,0.4,1,0 S412.7,27,412.4,26.7z"></path> <path class="st13" d="M427,10.3c2.2,0.3,5.1,2.8,7.3,3.6c2.5,0.9,3.8,0.2,4.5,0.4s2.3,1.3,3,1.4s1.5-0.8,1.2-0.9 c-0.9-0.3-1.7-0.6-2.6-1c-0.9-0.4-1.9-1-1.8-1.4s-0.3-0.8,0.5-0.8s2.5,0.1,3.2-0.4s1.3-1.2,1.2-1.7s0.8-0.3,1.3-1.3s0.2-1.7,0.6-2 c0.6-0.7,1-1.6,1.1-2.5c-0.1-0.5-0.2-1-0.3-1.5c-0.1-0.6-0.1-2.6-0.5-2.2s-2.7,3-4.8,4.3s-5.1,3.7-6,4.1c-2,1-0.4,0-2.9-0.7 c-0.4-0.1-1.2-1.1-2.4-1.3s-0.8-1.2-2.3-1.3s-1.1-1.7-2.5-1.8s-1.7-1.4-2.3-1.9s-2.2-2.2-1.4-0.6s2.5,5.3,3.5,5.6s1.6,1.5,3.8,2.3 c0.6,0.2,1.9,0.4,1.2,0.5c-0.7,0.1-1.3,0-2-0.2c-1.1-0.3-2.3-1.2-3.3-1.3s-1.9,0.3-2.8,0.3s-1.7-0.1-1.4,0.1 c0.7,0.2,1.4,0.5,2.1,0.6c0.8,0.5,1.7,0.8,2.6,1C425.7,9.9,426.4,10.1,427,10.3z"></path> </g> </svg> 